<svg width="21" height="21" viewBox="0 0 21 21" fill="none" xmlns="http://www.w3.org/2000/svg">
<path d="M1.39105 1.6218H4.80131L7.08618 13.0376C7.16414 13.4301 7.37768 13.7827 7.68941 14.0337C8.00114 14.2846 8.3912 14.4179 8.79131 14.4103H17.0782C17.4783 14.4179 17.8684 14.2846 18.1801 14.0337C18.4919 13.7827 18.7054 13.4301 18.7834 13.0376L20.1475 5.88462H5.65387M9.06413 18.6731C9.06413 19.1439 8.68242 19.5256 8.21157 19.5256C7.74071 19.5256 7.359 19.1439 7.359 18.6731C7.359 18.2022 7.74071 17.8205 8.21157 17.8205C8.68242 17.8205 9.06413 18.2022 9.06413 18.6731ZM18.4423 18.6731C18.4423 19.1439 18.0606 19.5256 17.5898 19.5256C17.1189 19.5256 16.7372 19.1439 16.7372 18.6731C16.7372 18.2022 17.1189 17.8205 17.5898 17.8205C18.0606 17.8205 18.4423 18.2022 18.4423 18.6731Z" stroke="#262524" stroke-width="1.70513" stroke-linecap="round" stroke-linejoin="round"/>
</svg>
