<svg width="107" height="15" viewBox="0 0 107 15" fill="none" xmlns="http://www.w3.org/2000/svg">
<path d="M8.91225 14.2366C7.80808 14.2366 6.7762 14.1709 5.81662 14.0394C4.85704 13.908 4.01577 13.6779 3.2928 13.3493C2.56983 13.0207 2.0046 12.5606 1.59711 11.9691C1.18961 11.3776 0.985868 10.6283 0.985868 9.72133C0.985868 9.69504 0.985868 9.66218 0.985868 9.62274C0.985868 9.58331 0.992441 9.54388 1.00559 9.50444H4.94906C4.93591 9.55702 4.92277 9.6096 4.90962 9.66218C4.90962 9.71476 4.90962 9.77391 4.90962 9.83964C4.90962 10.2471 5.06079 10.5692 5.36312 10.8058C5.6786 11.0293 6.11238 11.187 6.66447 11.279C7.21656 11.371 7.86723 11.417 8.61649 11.417C8.91882 11.417 9.22773 11.4105 9.54321 11.3973C9.87183 11.371 10.1873 11.3382 10.4896 11.2987C10.792 11.2461 11.0614 11.1738 11.2981 11.0818C11.5478 10.9898 11.7384 10.8781 11.8699 10.7466C12.0144 10.602 12.0867 10.4246 12.0867 10.2143C12.0867 9.93822 11.9356 9.72133 11.6332 9.56359C11.3441 9.39271 10.9366 9.26126 10.4108 9.16925C9.89812 9.06409 9.31974 8.97207 8.67564 8.8932C8.04469 8.81433 7.38744 8.72232 6.7039 8.61716C6.02037 8.49886 5.35655 8.34769 4.71245 8.16366C4.06835 7.96649 3.48997 7.71016 2.97732 7.39468C2.46467 7.0792 2.05718 6.67171 1.75485 6.17221C1.45251 5.6727 1.30135 5.06803 1.30135 4.35821C1.30135 3.63524 1.4788 3.01743 1.83372 2.50478C2.20177 1.97898 2.71442 1.5452 3.37167 1.20343C4.02892 0.861662 4.80446 0.611909 5.69832 0.454169C6.59217 0.283285 7.5649 0.197843 8.61649 0.197843C9.69437 0.197843 10.6671 0.283285 11.5347 0.454169C12.4154 0.625053 13.1646 0.881379 13.7824 1.22315C14.4134 1.55177 14.8932 1.97241 15.2218 2.48506C15.5636 2.98456 15.7345 3.57609 15.7345 4.25962V4.53566H11.8501V4.37793C11.8501 4.10188 11.7318 3.8587 11.4952 3.64838C11.2586 3.42492 10.9103 3.25404 10.4502 3.13573C10.0033 3.00428 9.45776 2.93856 8.81366 2.93856C8.03811 2.93856 7.40058 2.99114 6.90108 3.0963C6.40157 3.18831 6.03351 3.31976 5.79691 3.49064C5.5603 3.64838 5.44199 3.83241 5.44199 4.04273C5.44199 4.30563 5.59316 4.51595 5.89549 4.67369C6.19783 4.81828 6.60532 4.93658 7.11797 5.0286C7.63062 5.12061 8.20242 5.20605 8.83338 5.28492C9.47748 5.36379 10.1413 5.45581 10.8248 5.56097C11.5215 5.66613 12.1853 5.81072 12.8163 5.99475C13.4604 6.17878 14.0388 6.42853 14.5514 6.74401C15.0641 7.04634 15.4716 7.44069 15.7739 7.92705C16.0762 8.40027 16.2274 8.98522 16.2274 9.6819C16.2274 10.7729 15.9119 11.6536 15.281 12.324C14.65 12.9944 13.7824 13.4808 12.6783 13.7831C11.5872 14.0854 10.3319 14.2366 8.91225 14.2366ZM18.7746 14V0.434452H22.3632L29.3826 6.76373C29.5009 6.86889 29.652 7.01348 29.8361 7.19751C30.0332 7.38154 30.2304 7.57214 30.4276 7.76931C30.6379 7.96649 30.8154 8.15051 30.96 8.3214H31.1374C31.1374 8.08479 31.1308 7.78903 31.1177 7.43412C31.1177 7.0792 31.1177 6.76373 31.1177 6.48768V0.434452H34.9034V14H31.374L24.5124 7.80875C24.1969 7.5327 23.8683 7.2238 23.5265 6.88203C23.1847 6.54026 22.9087 6.27079 22.6984 6.07362H22.5406C22.5406 6.2445 22.5406 6.52055 22.5406 6.90175C22.5538 7.28295 22.5604 7.69044 22.5604 8.12422V14H18.7746ZM38.2609 14V0.434452H52.3786V3.41177H42.2833V5.69899H51.1167V8.57772H42.2833V11.0227H52.5363V14H38.2609ZM53.9023 14L60.5668 0.434452H65.0427L71.7071 14H67.3496L66.3243 11.8311H59.0683L58.043 14H53.9023ZM60.4091 8.8932H64.9835L63.761 6.13277C63.7085 6.01447 63.6362 5.84358 63.5441 5.62012C63.4521 5.38351 63.3535 5.14033 63.2484 4.89058C63.1432 4.62768 63.0512 4.39107 62.9723 4.18075C62.8935 3.95729 62.8277 3.79298 62.7752 3.68782H62.6371C62.5451 3.92443 62.4334 4.20047 62.3019 4.51595C62.1705 4.83142 62.0456 5.13376 61.9273 5.42295C61.8222 5.71213 61.7236 5.94874 61.6316 6.13277L60.4091 8.8932ZM73.6713 14V0.434452H77.6739V7.02005L85.0482 0.434452H90.1156L83.9243 6.03418L90.2536 14H85.2848L80.9667 8.4397L77.6739 11.1015V14H73.6713ZM97.8482 14V8.3214L91.0457 0.473886H92.7808L98.4791 7.09892H98.7158L104.434 0.473886H106.09L99.2481 8.3214V14H97.8482ZM103.671 14V12.2057H105.327V14H103.671Z" fill="black"/>
</svg>
